<svg width="1350" height="1350" viewBox="0 0 1350 1350" fill="none" xmlns="http://www.w3.org/2000/svg">
<path d="M759.611 107.651L734.913 114.084L736.411 139.203C738.751 178.386 739.928 219.974 739.928 263.98C739.928 428.537 724.632 583.498 694.159 728.937C679.052 801.027 659.381 853.555 636.459 888.583C613.973 922.954 589.946 938.33 565.173 942.018C554.52 943.323 552.438 940.686 551.944 940.068C551.925 940.037 551.905 940.014 551.886 939.994C549.698 937.419 545.345 928.869 545.345 907.45C545.345 872.252 554.379 825.98 574.09 767.737L596.878 700.412L531.407 730.053L310.045 830.266L296.639 836.337L292.883 850.392C280.254 897.657 274 947.181 274 998.871C274 1086.78 294.161 1163.25 336.209 1226.67L336.413 1226.97L336.625 1227.27C383.373 1294.24 458.921 1325 555.163 1325C674.261 1325 770.503 1258.03 844.357 1136.03C918.246 1015.93 972.782 861.579 1008.92 674.177C1046.17 487.17 1068.34 284.523 1075.52 66.3102L1076.88 25L1036.31 35.5689L759.611 107.651Z" fill="white" stroke="white" stroke-width="30.3257"/>
</svg>
