<svg width="1350" height="1350" viewBox="0 0 1350 1350" fill="none" xmlns="http://www.w3.org/2000/svg">
<g clip-path="url(#clip0_3483_38)">
<path d="M956.921 247.999L933.477 241.718L927.196 265.162L950.64 271.443L956.921 247.999ZM1185.75 644.338L1162.3 638.057L1156.02 661.501L1179.47 667.782L1185.75 644.338ZM1101.99 956.92L1108.27 933.476L1084.83 927.195L1078.55 950.639L1101.99 956.92ZM705.653 1185.75L711.934 1162.3L688.49 1156.02L682.209 1179.46L705.653 1185.75ZM393.07 1101.99L416.514 1108.27L422.795 1084.83L399.351 1078.55L393.07 1101.99ZM164.243 705.652L187.687 711.934L193.968 688.49L170.526 682.208L164.243 705.652ZM247.999 393.07L241.718 416.514L265.162 422.795L271.443 399.351L247.999 393.07ZM644.338 164.243L638.057 187.687L661.501 193.97L667.782 170.526L644.338 164.243ZM1244.53 299.937L963.204 224.555L950.64 271.443L1231.96 346.823L1244.53 299.937ZM1284.57 369.296C1292.67 339.084 1274.74 308.032 1244.53 299.937L1231.96 346.823C1236.28 347.98 1238.84 352.417 1237.68 356.732L1284.57 369.296ZM1209.19 650.619L1284.57 369.296L1237.68 356.732L1162.3 638.057L1209.19 650.619ZM1323.6 848.789C1350.2 749.524 1291.29 647.493 1192.03 620.894L1179.47 667.782C1252.84 687.441 1296.38 762.857 1276.72 836.225L1323.6 848.789ZM1095.71 980.364C1194.97 1006.96 1297.01 948.055 1323.6 848.789L1276.72 836.225C1257.06 909.596 1181.64 953.136 1108.27 933.476L1095.71 980.364ZM1050.05 1244.53L1125.44 963.203L1078.55 950.639L1003.17 1231.96L1050.05 1244.53ZM980.695 1284.57C1010.91 1292.67 1041.96 1274.74 1050.05 1244.53L1003.17 1231.96C1002.01 1236.28 997.574 1238.84 993.259 1237.68L980.695 1284.57ZM699.371 1209.19L980.695 1284.57L993.259 1237.68L711.934 1162.3L699.371 1209.19ZM501.201 1323.6C600.467 1350.2 702.497 1291.29 729.097 1192.03L682.209 1179.46C662.549 1252.83 587.134 1296.37 513.765 1276.72L501.201 1323.6ZM369.626 1095.71C343.027 1194.97 401.936 1297.01 501.201 1323.6L513.765 1276.72C440.395 1257.06 396.853 1181.64 416.514 1108.27L369.626 1095.71ZM105.464 1050.05L386.787 1125.43L399.351 1078.55L118.026 1003.17L105.464 1050.05ZM65.4189 980.694C57.3238 1010.91 75.2518 1041.96 105.464 1050.05L118.026 1003.17C113.711 1002.01 111.15 997.574 112.307 993.258L65.4189 980.694ZM140.799 699.371L65.4189 980.694L112.307 993.258L187.687 711.934L140.799 699.371ZM26.3868 501.201C-0.212314 600.466 58.6959 702.497 157.962 729.096L170.526 682.208C97.1553 662.549 53.6136 587.134 73.2745 513.765L26.3868 501.201ZM254.281 369.626C155.017 343.029 52.9842 401.935 26.3868 501.201L73.2745 513.765C92.9338 440.395 168.348 396.855 241.718 416.514L254.281 369.626ZM299.937 105.464L224.555 386.787L271.443 399.351L346.823 118.027L299.937 105.464ZM369.296 65.419C339.084 57.3239 308.032 75.2535 299.937 105.464L346.823 118.027C347.98 113.711 352.417 111.15 356.732 112.307L369.296 65.419ZM650.62 140.801L369.296 65.419L356.732 112.307L638.057 187.687L650.62 140.801ZM667.782 170.526C687.441 97.1554 762.857 53.6154 836.226 73.2746L848.79 26.3869C749.524 -0.212162 647.492 58.6976 620.894 157.962L667.782 170.526ZM836.226 73.2746C909.596 92.9339 953.136 168.348 933.477 241.718L980.365 254.281C1006.96 155.017 948.054 52.9843 848.79 26.3869L836.226 73.2746Z" fill="white"/>
<path d="M617.638 111.258C661.155 27.1179 758.711 -18.4561 853.967 7.06848C949.22 32.5916 1010.92 120.836 1006.54 215.46L1249.7 280.618C1290.58 291.572 1314.84 333.59 1303.89 374.472L1238.73 617.638C1322.87 661.155 1368.45 758.71 1342.92 853.966C1317.4 949.221 1229.16 1010.92 1134.53 1006.53L1069.37 1249.7C1058.5 1290.26 1017.06 1314.46 976.477 1304.14L975.519 1303.89L732.35 1238.73C689.029 1322.49 592.159 1368.03 497.313 1343.26L496.025 1342.92C400.77 1317.4 339.071 1229.15 343.455 1134.53L100.288 1069.37C59.4063 1058.42 35.1468 1016.4 46.1004 975.518L111.256 732.35C27.1166 688.833 -18.4557 591.28 7.06843 496.025C32.5914 400.77 120.836 339.072 215.461 343.455L280.619 100.288C291.488 59.728 332.936 35.527 373.514 45.8504L374.473 46.1004L617.638 111.258ZM848.79 26.3867C757.47 1.91671 663.81 49.8156 628.693 134.925L369.296 65.4186C339.32 57.3869 308.517 74.9749 300.131 104.758L299.937 105.464L230.43 364.863C139.165 352.721 50.8552 409.881 26.3867 501.201C1.91678 592.52 49.8144 686.177 134.924 721.296L65.4196 980.694C57.3245 1010.91 75.252 1041.96 105.464 1050.05L364.862 1119.56C352.718 1210.82 409.882 1299.14 501.202 1323.6C592.521 1348.07 686.178 1300.17 721.296 1215.07L980.695 1284.57C1010.67 1292.6 1041.47 1275.02 1049.86 1245.23L1050.05 1244.53L1119.56 985.128C1210.83 997.269 1299.14 940.109 1323.6 848.79C1348.07 757.47 1300.18 663.811 1215.07 628.693L1284.57 369.296C1292.67 339.084 1274.74 308.033 1244.53 299.937L985.129 230.43C997.27 139.165 940.108 50.8551 848.79 26.3867ZM667.783 170.525C687.442 97.1553 762.857 53.6159 836.226 73.275C909.023 92.7807 952.454 167.173 933.926 239.998L933.477 241.718L927.196 265.162L1231.97 346.823C1236.28 347.98 1238.84 352.417 1237.68 356.732L1156.02 661.501L1179.47 667.782C1252.84 687.442 1296.38 762.857 1276.72 836.225C1257.06 909.596 1181.64 953.136 1108.27 933.477L1084.83 927.195L1078.55 950.639L1003.17 1231.96C1002.01 1236.28 997.574 1238.84 993.259 1237.68L688.49 1156.02L682.209 1179.47C662.55 1252.84 587.134 1296.37 513.765 1276.72C440.968 1257.21 397.536 1182.82 416.066 1109.99L416.515 1108.27L422.796 1084.83L399.352 1078.55L393.071 1101.99L393.07 1101.99L399.352 1078.55L118.027 1003.17C113.846 1002.05 111.312 997.847 112.209 993.663L112.307 993.258L193.968 688.49L170.526 682.209C97.729 662.703 54.2961 588.308 72.8258 515.485L73.275 513.765C92.9343 440.395 168.348 396.855 241.718 416.514L247.999 393.069L268.736 398.626L247.999 393.071L241.718 416.514L265.162 422.795L346.824 118.027C347.981 113.711 352.417 111.15 356.732 112.307L661.501 193.969L667.783 170.525ZM831.05 92.5932C768.35 75.7928 703.901 113.001 687.101 175.702L675.644 218.465L632.881 207.004L363.059 134.707L279.305 447.29L236.542 435.833C174.331 419.164 110.4 455.662 92.9956 517.477L92.5932 518.942C75.7916 581.64 113.001 646.089 175.702 662.89L218.462 674.348L207.006 717.109L134.707 986.931L447.29 1070.69L435.833 1113.45C419.031 1176.15 456.24 1240.6 518.942 1257.4L520.412 1257.78C582.645 1273.61 646.221 1236.5 662.89 1174.29L674.348 1131.52L717.109 1142.98L986.93 1215.28L1070.69 902.701L1113.45 914.158L1114.92 914.542C1177.15 930.376 1240.73 893.26 1257.4 831.049L1257.78 829.579C1273.62 767.345 1236.5 703.77 1174.29 687.101L1131.53 675.643L1215.28 363.058L945.463 290.762L902.701 279.305L914.159 236.541C930.959 173.84 893.751 109.394 831.05 92.5932Z" fill="white"/>
<path d="M678.716 340.817L664.389 344.606L665.258 359.402C666.615 382.482 667.298 406.979 667.298 432.899C667.298 529.829 658.425 621.106 640.747 706.775C631.983 749.238 620.572 780.179 607.275 800.811C594.23 821.057 580.292 830.114 565.921 832.286C559.741 833.055 558.534 831.502 558.247 831.138C558.236 831.119 558.224 831.106 558.213 831.094C556.944 829.577 554.419 824.541 554.419 811.924C554.419 791.192 559.66 763.936 571.094 729.629L584.313 689.973L546.333 707.432L417.919 766.461L410.142 770.036L407.963 778.316C400.637 806.156 397.009 835.327 397.009 865.774C397.009 917.554 408.705 962.602 433.097 999.954L433.215 1000.13L433.338 1000.31C460.458 1039.76 504.284 1057.88 560.115 1057.88C629.204 1057.88 685.035 1018.43 727.878 946.566C770.742 875.821 802.378 784.905 823.343 674.519C844.951 564.366 857.811 445 861.978 316.465L862.768 292.132L839.231 298.358L678.716 340.817Z" fill="white" stroke="white" stroke-width="20"/>
</g>
<defs>
<clipPath id="clip0_3483_38">
<rect width="1350" height="1350" fill="white"/>
</clipPath>
</defs>
</svg>
